<?xml version="1.0"?>
<svg xmlns="http://www.w3.org/2000/svg" width="975.005" height="629.555" viewBox="0 0 975.005 629.555">
  <path d="M12.054 310.013c-75.211 332.894 552.173 497.742 805.718-5.046 74.95 15.757 124.094-10.714 149.705-75.694-39.605-18.199-78.532-39.106-131.202-5.046 12.704-45.042-18.688-83.3-63.92-119.428-39.548 49.442-48.874 103.655-3.364 166.527-438.43 69.834-757.7-123.076-756.937 38.687" fill="#0cf" stroke="#000" stroke-width="11.7746"/>
  <path d="M16.843 309.613c-75.21 332.893 547.127 489.33 800.672-13.457 37.461 28.253 120.433-.523 146.341-65.601-43.756-14.028-76.643-44.34-132.884 5.046-112.078 256.09-656.202 463.137-814.13 74.012" fill="#00aad4"/>
  <path d="M242.499 456.355c0 14.864-12.05 26.913-26.913 26.913-14.864 0-26.914-12.05-26.914-26.913 0-14.864 12.05-26.914 26.914-26.914s26.913 12.05 26.913 26.914z" fill="#fff"/>
  <path d="M234.089 457.196c0 10.683-8.661 19.344-19.344 19.344-10.684 0-19.344-8.66-19.344-19.344 0-10.684 8.66-19.344 19.344-19.344 10.683 0 19.344 8.66 19.344 19.344z"/>
  <path d="M233.248 451.309a7.57 7.57 0 11-15.14 0 7.57 7.57 0 0115.14 0z" fill="#fff"/>
  <path d="M82.701 528.684c67.275 17.933 110.606 1.202 151.388-11.774" fill="none" stroke="#000" stroke-width="11.7746" stroke-linecap="round"/>
  <g fill="#0cf">
    <path d="M227.485 222.126C226.58 22.124 48.54 83.005 94.251 108.041c-5.464 8.443 111.449-13.196 133.234 114.085M228.274 220.588c2.691-199.986 180.18-137.519 134.248-112.892 5.388 8.492-111.327-14.19-134.248 112.892"/>
    <path d="M243.655 115.367C254.548-1.58 355.539 43.258 327.503 55.535c2.758 5.222-64.51-13.494-83.848 59.832M221.148 116.076c2.556-117.425-102.902-84.434-76.454-69.03-3.338 4.872 65.63-6.027 76.454 69.03"/>
  </g>
</svg>
